/* XPM */
static char * xpm_button[] = {
"70 20 18 1",
" 	c None",
".	c #191515",
"+	c #181414",
"@	c #1D1918",
"#	c #221E1C",
"$	c #272220",
"%	c #2C2724",
"&	c #312B28",
"*	c #36302C",
"=	c #3B3430",
"-	c #3F3934",
";	c #443D38",
">	c #49423C",
",	c #4E4640",
"'	c #534B44",
")	c #584F48",
"!	c #5D544C",
"~	c #625850",
"......................................................+++++++++++++++.",
".@@@@@@@@@@@@@@@@@@@@@@@@@@@@@@@@@@@@@@@@@@@@@@@@@@@@@@@@@@@@@@@@@@@@.",
".####################################################################.",
".$$$$$$$$$$$$$$$$$$$$$$$$$$$$$$$$$$$$$$$$$$$$$$$$$$$$$$$$$$$$$$$$$$$$.",
".%%%%%%%%%%%%%%%%%%%%%%%%%%%%%%%%%%%%%%%%%%%%%%%%%%%%%%%%%%%%%%%%%%%%.",
".&&&&&&&&&&&&&&&&&&&&&&&&&&&&&&&&&&&&&&&&&&&&&&&&&&&&&&&&&&&&&&&&&&&&.",
".********************************************************************.",
".====================================================================.",
".--------------------------------------------------------------------.",
".;;;;;;;;;;;;;;;;;;;;;;;;;;;;;;;;;;;;;;;;;;;;;;;;;;;;;;;;;;;;;;;;;;;;.",
".>>>>>>>>>>>>>>>>>>>>>>>>>>>>>>>>>>>>>>>>>>>>>>>>>>>>>>>>>>>>>>>>>>>>.",
".,,,,,,,,,,,,,,,,,,,,,,,,,,,,,,,,,,,,,,,,,,,,,,,,,,,,,,,,,,,,,,,,,,,,.",
".''''''''''''''''''''''''''''''''''''''''''''''''''''''''''''''''''''.",
".)))))))))))))))))))))))))))))))))))))))))))))))))))))))))))))))))))).",
".!!!!!!!!!!!!!!!!!!!!!!!!!!!!!!!!!!!!!!!!!!!!!!!!!!!!!!!!!!!!!!!!!!!!.",
".~~~~~~~~~~~~~~~~~~~~~~~~~~~~~~~~~~~~~~~~~~~~~~~~~~~~~~~~~~~~~~~~~~~~.",
".~~~~~~~~~~~~~~~~~~~~~~~~~~~~~~~~~~~~~~~~~~~~~~~~~~~~~~~~~~~~~~~~~~~~.",
".~~~~~~~~~~~~~~~~~~~~~~~~~~~~~~~~~~~~~~~~~~~~~~~~~~~~~~~~~~~~~~~~~~~~.",
".~~~~~~~~~~~~~~~~~~~~~~~~~~~~~~~~~~~~~~~~~~~~~~~~~~~~~~~~~~~~~~~~~~~~.",
"......................................................................"};
