/* XPM */
static char *xpm_stripe[] = {
/* columns rows colors chars-per-pixel */
"1 100 14 1",
"  c #1c1717",
". c #211d1c",
"X c #25201f",
"o c #2a2423",
"O c #322c29",
"+ c #38312e",
"@ c #3c3632",
"# c #433c37",
"$ c #4a423d",
"% c #4e4641",
"& c #534b45",
"* c #5c534b",
"= c #625951",
"- c None",
/* pixels */
" ",
" ",
" ",
" ",
" ",
" ",
".",
".",
"o",
"X",
"o",
"o",
"o",
"o",
"o",
"O",
"O",
"O",
"O",
"+",
"+",
"+",
"+",
"@",
"@",
"@",
"#",
"#",
"#",
"#",
"#",
"$",
"$",
"$",
"$",
"%",
"%",
"&",
"&",
"&",
"&",
"*",
"*",
"*",
"*",
"*",
"*",
"=",
"=",
"=",
"=",
"=",
"=",
"=",
"*",
"=",
"*",
"*",
"&",
"*",
"&",
"&",
"&",
"%",
"%",
"%",
"%",
"$",
"$",
"$",
"$",
"#",
"#",
"#",
"#",
"@",
"@",
"@",
"+",
"+",
"+",
"O",
"O",
"O",
"O",
"O",
"o",
"o",
"o",
"o",
"o",
"X",
"X",
"X",
".",
".",
".",
" ",
" ",
" "
};
